<svg xmlns="http://www.w3.org/2000/svg" viewBox="0 0 500 500"><defs><style>.cls-1{fill:#c9284f;}</style></defs><title>LOGO DANIA DECORACIONES</title><g id="Capa_2" data-name="Capa 2"><path class="cls-1" d="M329.92,74.42V239.83c0,11.75-.39,23.57,0,35.31.41,12.14-1.09,26.17-12.5,33.35-6.08,3.83-13.47,4.9-20.53,4.39,0,0,1.09.2-.49-.08-.83-.15-1.66-.28-2.49-.44-2-.39-4-.85-5.94-1.37a87.71,87.71,0,0,1-34.63-17.94c-15.77-13.41-25.7-31.81-30.65-51.76-3.57-14.35-4.64-29.17-4.29-43.92.46-19.41,2.29-39.69,10.92-57.35,14.45-29.59,43.91-48.75,75.26-56.37a164.32,164.32,0,0,1,30.34-4.23c6.41-.33,6.45-10.33,0-10-35.25,1.82-70,13.42-95.18,39-27.86,28.24-33.48,68.81-31,106.92,1.68,25.68,8.75,51.25,24.89,71.69a98.06,98.06,0,0,0,40.51,29.91c7.49,3,15.81,5.63,23.93,6.12,11.43.68,23.9-3.25,31.61-12,6.61-7.47,9.54-17.23,10.28-27,.59-7.9-.05-16.2-.05-24.11V74.42C339.92,68,329.92,68,329.92,74.42Z"/><path class="cls-1" d="M159.7,74.42V248.07c0,9.35.33,18.78-.07,28.12-.82,19,6.47,38.74,26.21,44.84,10.65,3.3,20.84,1.93,31.22-1.18,38.29-11.5,63.5-44.13,71-82.75a191.82,191.82,0,0,0,2.77-48.32c-1.26-20.79-4.46-41.28-15-59.58-16.75-29.08-47.53-48.1-79.68-55.55a181.57,181.57,0,0,0-31.49-4.23c-6.43-.33-6.42,9.67,0,10,33.5,1.73,66.41,13,89.83,37.8,25.87,27.37,29.45,68.3,25.83,104.23C278.1,244,270.7,266.81,255.49,284a89.48,89.48,0,0,1-50.06,28.4l-2.1.37-.92.14c-1.12.17,1.34-.12.32,0-.68.05-1.34.12-2,.14-11.66.37-22.64-4.48-27.7-15.36-3-6.41-3.76-13.48-3.44-20.45.39-8.1.14-16.24.14-24.34V74.42C169.7,68,159.7,68,159.7,74.42Z"/><path class="cls-1" d="M209.26,381.46V361.2h7.15a14.07,14.07,0,0,1,4.7.72A9.43,9.43,0,0,1,224.5,364a8.57,8.57,0,0,1,2.06,3.21,12.62,12.62,0,0,1,0,8.29,8.57,8.57,0,0,1-2.06,3.19,9.16,9.16,0,0,1-3.39,2.06,13.81,13.81,0,0,1-4.7.73Zm7.15-4.65c2,0,3.49-.49,4.4-1.47a6.57,6.57,0,0,0,0-8c-.91-1-2.37-1.47-4.4-1.47h-2.13v11Z"/><path class="cls-1" d="M245.63,381.46h-4.27v-2.39h-.07a4.4,4.4,0,0,1-1.79,2,5.51,5.51,0,0,1-2.95.76,7.47,7.47,0,0,1-2.51-.46,6.93,6.93,0,0,1-2.37-1.44,7.64,7.64,0,0,1-1.76-2.5,9.44,9.44,0,0,1-.1-6.88,7.25,7.25,0,0,1,1.71-2.55,7.92,7.92,0,0,1,2.6-1.68,8.89,8.89,0,0,1,3.33-.6,9.41,9.41,0,0,1,3.32.57,7.31,7.31,0,0,1,2.58,1.64,7.68,7.68,0,0,1,1.68,2.59,9.21,9.21,0,0,1,.6,3.41Zm-8.18-3.94a3.39,3.39,0,0,0,2.56-1,4.23,4.23,0,0,0,0-5.39,3.72,3.72,0,0,0-5.12,0,4.23,4.23,0,0,0,0,5.39A3.39,3.39,0,0,0,237.45,377.52Z"/><path class="cls-1" d="M259.14,381.46v-7.93a3.63,3.63,0,0,0-.81-2.64,2.84,2.84,0,0,0-2.1-.8,2.88,2.88,0,0,0-2.11.8,3.63,3.63,0,0,0-.81,2.64v7.93h-4.64v-7.93a9.7,9.7,0,0,1,.54-3.38,6.55,6.55,0,0,1,1.53-2.43,6.41,6.41,0,0,1,2.39-1.47,9.2,9.2,0,0,1,3.1-.5,9.51,9.51,0,0,1,3.1.48,6.23,6.23,0,0,1,2.38,1.46,6.7,6.7,0,0,1,1.54,2.43,9.8,9.8,0,0,1,.54,3.41v7.93Z"/><path class="cls-1" d="M269.64,364.76a3,3,0,0,1-2.12-5.1,3.08,3.08,0,0,1,4.25,0,3,3,0,0,1-2.13,5.1Zm-2.32,16.7V366.15H272v15.31Z"/><path class="cls-1" d="M291.3,381.46H287v-2.39H287a4.4,4.4,0,0,1-1.79,2,5.51,5.51,0,0,1-2.95.76,7.47,7.47,0,0,1-2.51-.46,7,7,0,0,1-2.37-1.44,7.64,7.64,0,0,1-1.76-2.5,9.44,9.44,0,0,1-.1-6.88,7.53,7.53,0,0,1,1.71-2.55,7.92,7.92,0,0,1,2.6-1.68,8.89,8.89,0,0,1,3.33-.6,9.41,9.41,0,0,1,3.32.57A7.31,7.31,0,0,1,289,368a7.68,7.68,0,0,1,1.68,2.59,9.21,9.21,0,0,1,.6,3.41Zm-8.18-3.94a3.37,3.37,0,0,0,2.56-1,4.23,4.23,0,0,0,0-5.39,3.72,3.72,0,0,0-5.12,0,4.23,4.23,0,0,0,0,5.39A3.4,3.4,0,0,0,283.12,377.52Z"/><path class="cls-1" d="M149,418.64V398.38h7.15a14.07,14.07,0,0,1,4.7.72,9.31,9.31,0,0,1,3.39,2.07,8.45,8.45,0,0,1,2.06,3.2,12.62,12.62,0,0,1,0,8.29,8.57,8.57,0,0,1-2.06,3.19,9.16,9.16,0,0,1-3.39,2.06,13.81,13.81,0,0,1-4.7.73Zm7.15-4.65c2,0,3.49-.49,4.4-1.47a6.55,6.55,0,0,0,0-8,5.75,5.75,0,0,0-4.4-1.48H154v11Z"/><path class="cls-1" d="M173.76,412.29v.06a3.17,3.17,0,0,0,1.21,1.91,3.73,3.73,0,0,0,2.2.63,5.41,5.41,0,0,0,1.74-.25,2.26,2.26,0,0,0,1.17-.86h4.81a7.2,7.2,0,0,1-2.79,3.82,8.36,8.36,0,0,1-4.93,1.44,8.89,8.89,0,0,1-3.33-.6,7.9,7.9,0,0,1-2.6-1.67,7.52,7.52,0,0,1-1.71-2.56,9,9,0,0,1,0-6.45,7.39,7.39,0,0,1,1.71-2.55,7.9,7.9,0,0,1,2.6-1.67,9.31,9.31,0,0,1,6.63,0,7.75,7.75,0,0,1,2.59,1.67,7.29,7.29,0,0,1,1.67,2.55,8.79,8.79,0,0,1,.59,3.23v1.3Zm3.41-5.21a3.75,3.75,0,0,0-2.07.56,3,3,0,0,0-1.24,1.64v.07h6.69v-.07a3.19,3.19,0,0,0-1.29-1.64A3.84,3.84,0,0,0,177.17,407.08Z"/><path class="cls-1" d="M198.64,409.35a3.22,3.22,0,0,0-1.25-1.52,3.66,3.66,0,0,0-2-.56,3.4,3.4,0,0,0-2.56,1,4.23,4.23,0,0,0,0,5.39,3.41,3.41,0,0,0,2.56,1,3.66,3.66,0,0,0,2-.56,3.22,3.22,0,0,0,1.25-1.52h4.71a7.54,7.54,0,0,1-.93,2.6,7.28,7.28,0,0,1-1.71,2,7.71,7.71,0,0,1-2.41,1.32,9.06,9.06,0,0,1-2.94.46,8.89,8.89,0,0,1-3.33-.6,7.9,7.9,0,0,1-2.6-1.67,7.52,7.52,0,0,1-1.71-2.56,9,9,0,0,1,0-6.45,7.39,7.39,0,0,1,1.71-2.55,7.9,7.9,0,0,1,2.6-1.67,8.7,8.7,0,0,1,3.33-.61,9.06,9.06,0,0,1,2.94.47,7.9,7.9,0,0,1,2.41,1.31,7.42,7.42,0,0,1,1.71,2,7.67,7.67,0,0,1,.93,2.61Z"/><path class="cls-1" d="M221.57,411a8.54,8.54,0,0,1-.6,3.22,7.52,7.52,0,0,1-1.71,2.56,7.84,7.84,0,0,1-2.61,1.67,9,9,0,0,1-3.32.6,8.89,8.89,0,0,1-3.33-.6,7.9,7.9,0,0,1-2.6-1.67,7.52,7.52,0,0,1-1.71-2.56,9,9,0,0,1,0-6.45,7.39,7.39,0,0,1,1.71-2.55,7.9,7.9,0,0,1,2.6-1.67,8.7,8.7,0,0,1,3.33-.61,8.79,8.79,0,0,1,3.32.61,7.84,7.84,0,0,1,2.61,1.67,7.39,7.39,0,0,1,1.71,2.55A8.59,8.59,0,0,1,221.57,411Zm-8.24,3.72a3.4,3.4,0,0,0,2.56-1,4.23,4.23,0,0,0,0-5.39,3.72,3.72,0,0,0-5.12,0,4.23,4.23,0,0,0,0,5.39A3.41,3.41,0,0,0,213.33,414.71Z"/><path class="cls-1" d="M233.1,410.06v-.13a2.78,2.78,0,0,0-.62-2.1,2.59,2.59,0,0,0-3.22,0,2.74,2.74,0,0,0-.62,2.1v8.71H224v-8.71a8.87,8.87,0,0,1,.49-3.11,5.61,5.61,0,0,1,3.58-3.47,8.82,8.82,0,0,1,2.81-.42,9,9,0,0,1,2.82.42,5.55,5.55,0,0,1,2.17,1.3,5.92,5.92,0,0,1,1.39,2.23,9.23,9.23,0,0,1,.5,3.18Z"/><path class="cls-1" d="M255.44,418.64h-4.28v-2.39h-.06a4.36,4.36,0,0,1-1.8,2,5.45,5.45,0,0,1-2.94.76,7.43,7.43,0,0,1-2.51-.46,6.93,6.93,0,0,1-2.37-1.44,7.7,7.7,0,0,1-1.77-2.5A8.77,8.77,0,0,1,239,411a8.59,8.59,0,0,1,.6-3.23,7.36,7.36,0,0,1,1.7-2.55,8,8,0,0,1,2.61-1.67,8.7,8.7,0,0,1,3.33-.61,9.31,9.31,0,0,1,3.31.57,7.15,7.15,0,0,1,2.59,1.65,7.51,7.51,0,0,1,1.67,2.58,9,9,0,0,1,.61,3.41Zm-8.18-3.93a3.37,3.37,0,0,0,2.55-1,4.2,4.2,0,0,0,0-5.39,3.71,3.71,0,0,0-5.11,0,4.23,4.23,0,0,0,0,5.39A3.4,3.4,0,0,0,247.26,414.71Z"/><path class="cls-1" d="M269.38,409.35a3.34,3.34,0,0,0-1.25-1.52,3.66,3.66,0,0,0-2-.56,3.37,3.37,0,0,0-2.56,1,4.2,4.2,0,0,0,0,5.39,3.38,3.38,0,0,0,2.56,1,3.66,3.66,0,0,0,2-.56,3.34,3.34,0,0,0,1.25-1.52h4.71a7.75,7.75,0,0,1-.93,2.6,7.31,7.31,0,0,1-1.72,2,7.55,7.55,0,0,1-2.4,1.32,9.06,9.06,0,0,1-2.94.46,8.89,8.89,0,0,1-3.33-.6,7.84,7.84,0,0,1-2.61-1.67,7.5,7.5,0,0,1-1.7-2.56,8.83,8.83,0,0,1,0-6.45,7.36,7.36,0,0,1,1.7-2.55,7.84,7.84,0,0,1,2.61-1.67,8.7,8.7,0,0,1,3.33-.61,9.06,9.06,0,0,1,2.94.47,7.73,7.73,0,0,1,2.4,1.31,7.46,7.46,0,0,1,1.72,2,7.89,7.89,0,0,1,.93,2.61Z"/><path class="cls-1" d="M279.26,401.94a3,3,0,0,1-2.12-5.1,3.08,3.08,0,0,1,4.25,0,3,3,0,0,1-2.13,5.1Zm-2.32,16.7V403.33h4.65v15.31Z"/><path class="cls-1" d="M301,411a8.54,8.54,0,0,1-.6,3.22,7.5,7.5,0,0,1-1.7,2.56,8,8,0,0,1-2.62,1.67,9,9,0,0,1-3.32.6,8.89,8.89,0,0,1-3.33-.6,7.9,7.9,0,0,1-2.6-1.67,7.5,7.5,0,0,1-1.7-2.56,8.83,8.83,0,0,1,0-6.45,7.36,7.36,0,0,1,1.7-2.55,7.9,7.9,0,0,1,2.6-1.67,8.7,8.7,0,0,1,3.33-.61,8.79,8.79,0,0,1,3.32.61,8,8,0,0,1,2.62,1.67,7.36,7.36,0,0,1,1.7,2.55A8.59,8.59,0,0,1,301,411Zm-8.24,3.72a3.38,3.38,0,0,0,2.56-1,4.2,4.2,0,0,0,0-5.39,3.71,3.71,0,0,0-5.11,0,4.2,4.2,0,0,0,0,5.39A3.37,3.37,0,0,0,292.74,414.71Z"/><path class="cls-1" d="M313.87,418.64v-7.93a3.58,3.58,0,0,0-.8-2.63,3.15,3.15,0,0,0-4.22,0,3.63,3.63,0,0,0-.8,2.63v7.93H303.4v-7.93a9.7,9.7,0,0,1,.54-3.38,6.45,6.45,0,0,1,1.54-2.43,6.37,6.37,0,0,1,2.38-1.47,9.2,9.2,0,0,1,3.1-.5,9.47,9.47,0,0,1,3.1.48,6.34,6.34,0,0,1,2.39,1.46A6.55,6.55,0,0,1,318,407.3a9.8,9.8,0,0,1,.54,3.41v7.93Z"/><path class="cls-1" d="M325.77,412.29v.06a3.17,3.17,0,0,0,1.21,1.91,3.73,3.73,0,0,0,2.2.63,5.41,5.41,0,0,0,1.74-.25,2.26,2.26,0,0,0,1.17-.86h4.8a7.13,7.13,0,0,1-2.78,3.82,8.36,8.36,0,0,1-4.93,1.44,8.89,8.89,0,0,1-3.33-.6,7.9,7.9,0,0,1-2.6-1.67,7.52,7.52,0,0,1-1.71-2.56,9,9,0,0,1,0-6.45,7.39,7.39,0,0,1,1.71-2.55,7.9,7.9,0,0,1,2.6-1.67,9.31,9.31,0,0,1,6.63,0,7.86,7.86,0,0,1,2.59,1.67,7.29,7.29,0,0,1,1.67,2.55,8.79,8.79,0,0,1,.59,3.23v1.3Zm3.41-5.21a3.8,3.8,0,0,0-2.08.56,3,3,0,0,0-1.23,1.64v.07h6.69v-.07a3.19,3.19,0,0,0-1.29-1.64A3.84,3.84,0,0,0,329.18,407.08Z"/><path class="cls-1" d="M347.37,407.89a1.22,1.22,0,0,0-.53-.82,1.92,1.92,0,0,0-1.12-.3,1.72,1.72,0,0,0-1.26.38,1.24,1.24,0,0,0-.38.93.78.78,0,0,0,.61.74,9.12,9.12,0,0,0,1.5.37l1.95.34a7,7,0,0,1,1.95.65,4.27,4.27,0,0,1,1.51,1.33,4.16,4.16,0,0,1,.6,2.39,4.61,4.61,0,0,1-.46,2.06,4.8,4.8,0,0,1-1.32,1.63,6.58,6.58,0,0,1-2.06,1.07,9.13,9.13,0,0,1-2.7.38,9,9,0,0,1-2.68-.37,6.35,6.35,0,0,1-2-1.05,4.9,4.9,0,0,1-1.32-1.6,4.67,4.67,0,0,1-.49-2h4.58c0,.81.65,1.21,1.89,1.21a2.32,2.32,0,0,0,1.5-.34,1.21,1.21,0,0,0,.39-1,.76.76,0,0,0-.6-.74,9.44,9.44,0,0,0-1.51-.38l-1.95-.34a6.69,6.69,0,0,1-1.95-.65,3.81,3.81,0,0,1-2.11-3.71,4.63,4.63,0,0,1,.45-2.05,5.08,5.08,0,0,1,1.26-1.63,5.88,5.88,0,0,1,2-1.08,8.14,8.14,0,0,1,2.59-.39,8,8,0,0,1,2.58.39,6.26,6.26,0,0,1,2,1.05,4.89,4.89,0,0,1,1.25,1.58,4.67,4.67,0,0,1,.48,1.94Z"/></g></svg>